<svg width="29" height="19" viewBox="0 0 29 19" fill="none" xmlns="http://www.w3.org/2000/svg">
<path d="M29 17.6496C29 18.3961 28.3533 19 27.5572 19H15.9427C15.5601 19 15.1931 18.8577 14.9226 18.6045C14.652 18.3512 14.5 18.0078 14.5 17.6496C14.5 17.2915 14.652 16.948 14.9226 16.6948C15.1931 16.4416 15.5601 16.2993 15.9427 16.2993H27.5572C28.3547 16.2993 29 16.9032 29 17.6496ZM29 9.5C29 10.2464 28.3533 10.8504 27.5572 10.8504H1.44275C1.06011 10.8504 0.69314 10.7081 0.422572 10.4548C0.152004 10.2016 0 9.85814 0 9.5C0 9.14186 0.152004 8.79839 0.422572 8.54515C0.69314 8.29191 1.06011 8.14964 1.44275 8.14964H27.5572C28.3547 8.14964 29 8.75493 29 9.5ZM27.5572 2.70071C27.9399 2.70071 28.3069 2.55844 28.5774 2.3052C28.848 2.05196 29 1.70849 29 1.35036C29 0.99222 28.848 0.648751 28.5774 0.39551C28.3069 0.142269 27.9399 1.06733e-08 27.5572 0H10.1427C9.95329 -5.28489e-09 9.76568 0.034928 9.59063 0.10279C9.41559 0.170652 9.25654 0.270118 9.12257 0.39551C8.9886 0.520902 8.88233 0.669765 8.80982 0.833598C8.73732 0.997431 8.7 1.17303 8.7 1.35036C8.7 1.52769 8.73732 1.70328 8.80982 1.86712C8.88233 2.03095 8.9886 2.17981 9.12257 2.3052C9.25654 2.4306 9.41559 2.53006 9.59063 2.59792C9.76568 2.66579 9.95329 2.70071 10.1427 2.70071H27.5572Z" fill="#F9FFF1"/>
</svg>
