<svg width="24" height="26" viewBox="0 0 24 26" fill="none" xmlns="http://www.w3.org/2000/svg">
<path d="M10.0101 1.78607C11.3754 1.78607 12.673 2.08073 13.8397 2.61114C13.2767 3.11038 12.9028 3.78831 12.781 4.53084C11.3777 3.93538 9.81991 3.80781 8.33841 4.16704C6.85692 4.52626 5.53055 5.35318 4.55582 6.52526C3.58109 7.69734 3.00985 9.15224 2.92675 10.6744C2.84364 12.1966 3.25308 13.705 4.09441 14.9762C4.93574 16.2475 6.1642 17.2139 7.59778 17.7322C9.03136 18.2506 10.5938 18.2934 12.0536 17.8543C13.5134 17.4151 14.7929 16.5174 15.7026 15.2941C16.6122 14.0709 17.1036 12.5871 17.1039 11.0627L17.0985 10.7691C17.6834 11.2929 18.4507 11.604 19.2714 11.6083C19.1628 13.5024 18.4735 15.317 17.2971 16.8054L21.2828 20.7911C21.4816 20.9969 21.5916 21.2726 21.5891 21.5587C21.5866 21.8449 21.4718 22.1186 21.2695 22.321C21.0671 22.5233 20.7934 22.6381 20.5072 22.6406C20.2211 22.6431 19.9454 22.5331 19.7396 22.3343L15.7539 18.3486C14.5921 19.2642 13.2282 19.8887 11.776 20.17C10.3238 20.4513 8.82542 20.3812 7.4058 19.9656C5.98618 19.5501 4.68651 18.8011 3.61523 17.7811C2.54394 16.7611 1.7321 15.4997 1.24744 14.1022C0.762776 12.7046 0.619339 11.2114 0.829096 9.74719C1.03885 8.28294 1.59572 6.89009 2.45324 5.68481C3.31077 4.47954 4.44408 3.49681 5.75863 2.8186C7.07319 2.14039 8.53086 1.78637 10.0101 1.78607ZM10.0101 5.06016C11.0218 5.06016 11.9756 5.31117 12.8127 5.75317C12.9322 6.30475 13.1922 6.81608 13.5676 7.23753C13.943 7.65898 14.4209 7.97625 14.955 8.15854L15.3348 8.28841C15.9404 9.45027 16.1491 10.7784 15.9293 12.07C15.7094 13.3616 15.073 14.5458 14.1171 15.4418C13.1612 16.3379 11.9384 16.8966 10.6353 17.0327C9.33221 17.1688 8.02037 16.8748 6.9 16.1955C5.77963 15.5163 4.91227 14.4891 4.43029 13.2708C3.94832 12.0524 3.87821 10.7099 4.23065 9.44797C4.5831 8.18607 5.33874 7.07414 6.38226 6.28189C7.42579 5.48963 8.69987 5.06056 10.0101 5.06016ZM19.2867 0.694702C19.4908 0.694702 19.6909 0.751975 19.8641 0.860012C20.0374 0.96805 20.1769 1.12252 20.2667 1.30587L20.3191 1.43356L20.461 1.84609C20.6107 2.28502 20.852 2.68713 21.1688 3.02579C21.4856 3.36446 21.8708 3.63194 22.2988 3.81055L22.5007 3.88694L22.9133 4.02773C23.1175 4.09742 23.2966 4.22614 23.4277 4.39759C23.5589 4.56904 23.6362 4.77553 23.65 4.99094C23.6638 5.20635 23.6134 5.42102 23.5052 5.60778C23.3969 5.79455 23.2358 5.94503 23.042 6.0402L22.9133 6.09259L22.5007 6.23446C22.0618 6.3842 21.6597 6.62548 21.321 6.94231C20.9824 7.25915 20.7149 7.64432 20.5363 8.07232L20.4599 8.27422L20.3191 8.68676C20.2493 8.89099 20.1205 9.06994 19.9489 9.20097C19.7774 9.332 19.5709 9.40923 19.3555 9.4229C19.1401 9.43657 18.9255 9.38606 18.7388 9.27775C18.5521 9.16945 18.4017 9.00822 18.3066 8.81445L18.2542 8.68676L18.1123 8.27422C17.9626 7.83529 17.7213 7.43318 17.4045 7.09452C17.0877 6.75586 16.7025 6.48837 16.2745 6.30977L16.0726 6.23337L15.6601 6.09259C15.4558 6.02289 15.2767 5.89418 15.1456 5.72273C15.0144 5.55128 14.9371 5.34479 14.9233 5.12937C14.9095 4.91396 14.9599 4.6993 15.0681 4.51253C15.1764 4.32576 15.3375 4.17528 15.5313 4.08011L15.6601 4.02773L16.0726 3.88585C16.5115 3.73611 16.9136 3.49484 17.2523 3.178C17.591 2.86116 17.8584 2.47599 18.037 2.04799L18.1134 1.84609L18.2542 1.43356C18.3278 1.21811 18.4668 1.03104 18.6519 0.898557C18.8371 0.766071 19.059 0.694793 19.2867 0.694702Z" fill="url(#paint0_linear_432_14)"/>
<defs>
<linearGradient id="paint0_linear_432_14" x1="-1.44738" y1="2.67446" x2="13.8317" y2="18.4992" gradientUnits="userSpaceOnUse">
<stop offset="0.0130167" stop-color="#00D9FF"/>
<stop offset="1" stop-color="#9500FF"/>
</linearGradient>
</defs>
</svg>
