<svg width="42" height="42" viewBox="0 0 42 42" fill="none" xmlns="http://www.w3.org/2000/svg">
<g clip-path="url(#clip0_432_19)">
<path d="M15.9377 10.534C16.9842 7.4715 21.2157 7.37875 22.4564 10.2558L22.5614 10.5358L23.9737 14.6658C24.2973 15.6129 24.8203 16.4796 25.5074 17.2075C26.1945 17.9353 27.0297 18.5074 27.9567 18.885L28.3364 19.0267L32.4664 20.4373C35.5289 21.4838 35.6217 25.7153 32.7464 26.956L32.4664 27.061L28.3364 28.4733C27.3889 28.7967 26.5219 29.3196 25.7937 30.0067C25.0655 30.6938 24.4932 31.5291 24.1154 32.4563L23.9737 32.8342L22.5632 36.966C21.5167 40.0285 17.2852 40.1213 16.0462 37.246L15.9377 36.966L14.5272 32.836C14.2037 31.8885 13.6808 31.0214 12.9937 30.2933C12.3066 29.5651 11.4713 28.9928 10.5442 28.615L10.1662 28.4733L6.03618 27.0627C2.97193 26.0163 2.87918 21.7847 5.75618 20.5457L6.03618 20.4373L10.1662 19.0267C11.1133 18.7031 11.9801 18.1801 12.7079 17.493C13.4358 16.8059 14.0078 15.9707 14.3854 15.0437L14.5272 14.6658L15.9377 10.534ZM33.2504 4.5C33.5778 4.5 33.8986 4.59184 34.1764 4.76508C34.4542 4.93831 34.6779 5.186 34.8219 5.48L34.9059 5.68475L35.5184 7.48025L37.3157 8.09275C37.6438 8.20422 37.9314 8.41058 38.1421 8.68568C38.3528 8.96078 38.477 9.29223 38.4992 9.63804C38.5213 9.98384 38.4402 10.3284 38.2663 10.6281C38.0924 10.9278 37.8334 11.1691 37.5222 11.3215L37.3157 11.4055L35.5202 12.018L34.9077 13.8153C34.796 14.1433 34.5895 14.4307 34.3143 14.6412C34.0391 14.8518 33.7076 14.9758 33.3618 14.9978C33.016 15.0197 32.6715 14.9385 32.3719 14.7644C32.0723 14.5903 31.8311 14.3313 31.6789 14.02L31.5949 13.8153L30.9824 12.0198L29.1852 11.4073C28.8571 11.2958 28.5695 11.0894 28.3588 10.8143C28.1481 10.5392 28.0238 10.2078 28.0017 9.86196C27.9796 9.51616 28.0606 9.17157 28.2345 8.87187C28.4085 8.57217 28.6675 8.33086 28.9787 8.1785L29.1852 8.0945L30.9807 7.482L31.5932 5.68475C31.7112 5.33899 31.9344 5.03884 32.2316 4.82637C32.5288 4.61391 32.8851 4.49978 33.2504 4.5Z" fill="#F9FFF1"/>
</g>
<defs>
<clipPath id="clip0_432_19">
<rect width="42" height="42" fill="white"/>
</clipPath>
</defs>
</svg>
