<svg width="45" height="45" viewBox="0 0 45 45" fill="none" xmlns="http://www.w3.org/2000/svg">
<rect width="45" height="45" rx="22.5" fill="#2D352A"/>
<path d="M13.1992 21.5022C12.6469 21.5022 12.1992 21.9499 12.1992 22.5022C12.1992 23.0545 12.6469 23.5022 13.1992 23.5022V22.5022V21.5022ZM32.3454 23.2093C32.7359 22.8188 32.7359 22.1856 32.3454 21.7951L25.9815 15.4311C25.5909 15.0406 24.9578 15.0406 24.5672 15.4311C24.1767 15.8217 24.1767 16.4548 24.5672 16.8453L30.2241 22.5022L24.5672 28.1591C24.1767 28.5496 24.1767 29.1827 24.5672 29.5733C24.9578 29.9638 25.5909 29.9638 25.9815 29.5733L32.3454 23.2093ZM13.1992 22.5022V23.5022H31.6383V22.5022V21.5022H13.1992V22.5022Z" fill="#F9FFF1"/>
</svg>
