<svg width="28" height="23" viewBox="0 0 28 23" fill="none" xmlns="http://www.w3.org/2000/svg">
<path d="M23.0283 14.1427C21.9095 14.8106 20.6246 15.1619 19.3154 15.1577C18.2186 15.1492 17.1342 14.9289 16.1239 14.5093C15.3453 15.5889 14.9286 16.8799 14.9318 18.2029V21.5815C14.9321 21.7071 14.906 21.8315 14.8553 21.9468C14.8046 22.0622 14.7303 22.166 14.637 22.252C14.5437 22.3379 14.4334 22.4041 14.3129 22.4465C14.1925 22.4888 14.0644 22.5063 13.9368 22.498C13.6969 22.4775 13.4738 22.3687 13.3122 22.1934C13.1506 22.0181 13.0625 21.7893 13.0654 21.5528V20.1276L8.56052 15.7031C7.89085 15.9484 7.18261 16.0768 6.46787 16.0823C5.4839 16.0848 4.51834 15.8203 3.67767 15.3181C1.13593 13.8013 -0.23234 10.3104 0.0324494 5.97639C0.0457815 5.75216 0.142479 5.54055 0.304183 5.38173C0.465888 5.22291 0.68134 5.12794 0.909636 5.11485C5.3224 4.85936 8.87663 6.19864 10.4164 8.69504C11.0213 9.67353 11.2854 10.8189 11.1687 11.9579C11.1615 12.0461 11.1284 12.1304 11.0734 12.2006C11.0184 12.2707 10.9439 12.3237 10.8589 12.3532C10.7739 12.3826 10.682 12.3873 10.5943 12.3665C10.5067 12.3458 10.4271 12.3005 10.3651 12.2363L8.12543 9.9335C7.949 9.76888 7.71407 9.67845 7.47073 9.68151C7.2274 9.68457 6.9949 9.78088 6.82282 9.94988C6.65074 10.1189 6.55269 10.3472 6.54958 10.5862C6.54646 10.8252 6.63853 11.056 6.80615 11.2292L13.0911 17.559C13.0981 17.4697 13.1063 17.3803 13.1156 17.2921C13.3197 15.5928 14.0831 14.0054 15.2899 12.7713L21.1911 6.6466C21.3662 6.47477 21.4646 6.24166 21.4647 5.99856C21.4648 5.75545 21.3666 5.52226 21.1917 5.35028C21.0167 5.1783 20.7794 5.08163 20.5318 5.08152C20.2843 5.08141 20.0469 5.17788 19.8718 5.34971L14.1561 11.2865C14.0989 11.3461 14.0265 11.3894 13.9464 11.4122C13.8663 11.4349 13.7815 11.4362 13.7008 11.4158C13.6201 11.3955 13.5464 11.3543 13.4874 11.2965C13.4284 11.2387 13.3862 11.1664 13.3652 11.0872C12.8123 9.08457 13.0561 7.09112 14.1118 5.3795C16.1951 2.00208 21.0429 0.194226 27.0806 0.542508C27.3089 0.555602 27.5243 0.650575 27.686 0.809394C27.8477 0.968214 27.9444 1.17982 27.9578 1.40405C28.3077 7.33514 26.467 12.0965 23.0283 14.1427Z" fill="#F9FFF1"/>
</svg>
